<svg width="17" height="17" viewBox="0 0 17 17" fill="none" xmlns="http://www.w3.org/2000/svg">
<path d="M11.0389 0H5.01768C2.24692 0 0 2.24692 0 5.01768V11.0389C0 13.8097 2.24692 16.0566 5.01768 16.0566H11.0389C13.8097 16.0566 16.0566 13.8097 16.0566 11.0389V5.01768C16.0566 2.24692 13.8097 0 11.0389 0ZM14.5513 11.0389C14.5513 12.9757 12.9757 14.5513 11.0389 14.5513H5.01768C3.08086 14.5513 1.50531 12.9757 1.50531 11.0389V5.01768C1.50531 3.08086 3.08086 1.50531 5.01768 1.50531H11.0389C12.9757 1.50531 14.5513 3.08086 14.5513 5.01768V11.0389Z" fill="#50616B"/>
<path d="M8.02782 4.01416C5.81101 4.01416 4.01367 5.81149 4.01367 8.02831C4.01367 10.2451 5.81101 12.0425 8.02782 12.0425C10.2446 12.0425 12.042 10.2451 12.042 8.02831C12.042 5.81149 10.2446 4.01416 8.02782 4.01416ZM8.02782 10.5371C6.64495 10.5371 5.51898 9.41118 5.51898 8.02831C5.51898 6.64443 6.64495 5.51947 8.02782 5.51947C9.41069 5.51947 10.5367 6.64443 10.5367 8.02831C10.5367 9.41118 9.41069 10.5371 8.02782 10.5371Z" fill="#50616B"/>
<path d="M12.3435 4.24799C12.6389 4.24799 12.8784 4.00852 12.8784 3.71311C12.8784 3.4177 12.6389 3.17822 12.3435 3.17822C12.0481 3.17822 11.8086 3.4177 11.8086 3.71311C11.8086 4.00852 12.0481 4.24799 12.3435 4.24799Z" fill="#50616B"/>
</svg>
