<svg width="12" height="14" viewBox="0 0 12 14" fill="none" xmlns="http://www.w3.org/2000/svg">
<path fill-rule="evenodd" clip-rule="evenodd" d="M5.77371 13.9291L6 13.6114L5.77371 13.9291ZM6.22629 13.9291L6.22786 13.9283L6.23179 13.9256L6.24357 13.9167L6.28993 13.8836C6.32921 13.8548 6.38657 13.8128 6.45886 13.7576C6.60343 13.648 6.8085 13.4866 7.05325 13.2793C7.69573 12.7357 8.2965 12.1455 8.85057 11.5137C10.1501 10.0258 11.5 7.902 11.5 5.47411C11.5 4.02353 10.9209 2.63128 9.89007 1.60459C9.38055 1.09645 8.77454 0.693086 8.10692 0.417705C7.4393 0.142323 6.72326 0.000364916 6 0C5.27677 0.000313974 4.56074 0.142211 3.89313 0.417525C3.22551 0.692839 2.61948 1.09613 2.10993 1.6042C1.07806 2.63324 0.499307 4.02457 0.500001 5.4745C0.500001 7.902 1.84986 10.0258 3.14943 11.5137C3.7035 12.1455 4.30427 12.7357 4.94675 13.2793C5.19189 13.4866 5.39657 13.648 5.54114 13.7576C5.61205 13.8117 5.68369 13.8649 5.75604 13.9171L5.76861 13.9256L5.77214 13.9283L5.77371 13.9291C5.90925 14.0236 6.09075 14.0236 6.22629 13.9291ZM6 13.6114L6.22629 13.9291L6 13.6114ZM7.96429 5.44456C7.96429 5.96027 7.75733 6.45485 7.38896 6.81952C7.02059 7.18418 6.52096 7.38904 6 7.38904C5.47904 7.38904 4.97942 7.18418 4.61104 6.81952C4.24267 6.45485 4.03571 5.96027 4.03571 5.44456C4.03571 4.92885 4.24267 4.43426 4.61104 4.0696C4.97942 3.70494 5.47904 3.50007 6 3.50007C6.52096 3.50007 7.02059 3.70494 7.38896 4.0696C7.75733 4.43426 7.96429 4.92885 7.96429 5.44456Z" fill="#50616B"/>
</svg>
